<svg xmlns="http://www.w3.org/2000/svg" viewBox="0 0 1024 1024" role="img" aria-label="DSA Coach app icon">
  <defs>
    <linearGradient id="base" x1="136" y1="92" x2="888" y2="932" gradientUnits="userSpaceOnUse">
      <stop offset="0" stop-color="#08747a" />
      <stop offset="1" stop-color="#203236" />
    </linearGradient>
  </defs>
  <path d="M272 58h480c118 0 214 96 214 214v480c0 118-96 214-214 214H272C154 966 58 870 58 752V272C58 154 154 58 272 58Z" fill="#0a1214" opacity=".22" transform="translate(16 40) scale(.968 .92)" />
  <path d="M272 58h480c118 0 214 96 214 214v480c0 118-96 214-214 214H272C154 966 58 870 58 752V272C58 154 154 58 272 58Z" fill="url(#base)" />
  <path d="M272 58h480c118 0 214 96 214 214v480c0 118-96 214-214 214H272C154 966 58 870 58 752V272C58 154 154 58 272 58Z" fill="none" stroke="#f7f5ef" stroke-opacity=".18" stroke-width="11" />
  <path d="M288 92h448c99 0 180 81 180 180v200H108V272c0-99 81-180 180-180Z" fill="#b8f1dd" opacity=".1" />

  <path d="M316 284c72-2 116-66 196-66s124 64 196 66" fill="none" stroke="#74d790" stroke-opacity=".42" stroke-width="24" stroke-linecap="round" />
  <g fill="#fffdf8" stroke="#74d790" stroke-width="13">
    <circle cx="316" cy="284" r="32" />
    <circle cx="512" cy="218" r="32" />
    <circle cx="708" cy="284" r="32" />
  </g>

  <path d="M240 332c84-18 176-4 258 42v370c-94-44-180-64-258-64Z" fill="#fffdf8" stroke="#ddd7ca" stroke-width="9" stroke-linejoin="round" />
  <path d="M526 374c82-46 174-60 258-42v348c-78 0-164 20-258 64Z" fill="#fffdf8" stroke="#ddd7ca" stroke-width="9" stroke-linejoin="round" />
  <path d="M512 378c-10 132-10 246 0 374" fill="none" stroke="#d7e0da" stroke-width="13" stroke-linecap="round" />

  <path d="M408 478 336 526l72 48" fill="none" stroke="#096b72" stroke-width="32" stroke-linecap="round" stroke-linejoin="round" />
  <path d="M616 478 688 526l-72 48" fill="none" stroke="#096b72" stroke-width="32" stroke-linecap="round" stroke-linejoin="round" />
  <path d="m552 464-80 130" fill="none" stroke="#a66a16" stroke-width="28" stroke-linecap="round" />
</svg>
